# xmcd CD database file
#
# Track frame offsets:
#	150
#	22847
#	46419
#	76083
#	89545
#	104577
#	137172
#	155073
#	171062
#
# Disc length: 2619 seconds
#
# Revision: 0
# Processed by: cddbd v1.5.2PL0 Copyright (c) Steve Scherf et al.
# Submitted via: CDex 1.91
#
DISCID=6b0a3909
DTITLE=Imagine Raymond - Imagine Raymond
DYEAR=2018
DGENRE=Jazz
TTITLE0=Baltimore Gas and Electric Co
TTITLE1=Rhythm modulator
TTITLE2=Blue Grotto in Capri
TTITLE3=Beautiful little butterfly
TTITLE4=Lightworks
TTITLE5=Sonic hedgehog
TTITLE6=Bass line generator
TTITLE7=Celebration on the planet Mars
TTITLE8=When will it end
EXTD=YEAR: 2018
EXTT0=
EXTT1=
EXTT2=
EXTT3=
EXTT4=
EXTT5=
EXTT6=
EXTT7=
EXTT8=
PLAYORDER=
